<?xml version="1.0" encoding="utf-8"?>
<svg version="1.1" id="Layer_1" xmlns="http://www.w3.org/2000/svg" xmlns:xlink="http://www.w3.org/1999/xlink" x="0px" y="0px"
	 viewBox="0 0 60 60" style="enable-background:new 0 0 60 60;" xml:space="preserve">
<title>Designed by Shapes4FREE.com</title>
<g>
	<path d="M58,4h-8V1c0-0.55-0.45-1-1-1l-2,0c-0.55,0-1,0.45-1,1v3h-8V1c0-0.55-0.45-1-1-1l-2,0c-0.55,0-1,0.45-1,1v3h-8V1
		c0-0.55-0.45-1-1-1l-2,0c-0.55,0-1,0.45-1,1v3h-8V1c0-0.55-0.45-1-1-1l-2,0c-0.55,0-1,0.45-1,1v3H2C0.9,4,0,4.9,0,6v10h60V6
		C60,4.9,59.1,4,58,4z"/>
	<path d="M37.66,37.25c0.73,0,1.31-0.22,1.75-0.65c0.44-0.43,0.66-1.03,0.66-1.8c0-0.72-0.22-1.3-0.65-1.73
		c-0.43-0.43-1-0.65-1.72-0.65c-0.74,0-1.33,0.22-1.76,0.66s-0.66,1.02-0.66,1.74c0,0.77,0.22,1.36,0.65,1.79
		S36.94,37.25,37.66,37.25z"/>
	<path d="M37.77,46.76c0.79,0,1.45-0.29,1.97-0.85s0.78-1.39,0.78-2.47c0-0.94-0.26-1.69-0.79-2.26c-0.53-0.57-1.2-0.85-2.01-0.85
		c-0.94,0-1.64,0.32-2.1,0.97s-0.69,1.35-0.69,2.11c0,1.06,0.27,1.88,0.81,2.47S36.95,46.76,37.77,46.76z"/>
	<path d="M0,58c0,1.1,0.9,2,2,2h56c1.1,0,2-0.9,2-2V18H0V58z M32.32,36.95c-0.45-0.73-0.68-1.54-0.68-2.41
		c0-1.5,0.52-2.73,1.57-3.71c1.04-0.98,2.53-1.46,4.45-1.46c1.91,0,3.38,0.49,4.44,1.46c1.05,0.98,1.58,2.21,1.58,3.71
		c0,0.93-0.24,1.76-0.72,2.48s-1.16,1.28-2.04,1.66c1.11,0.45,1.96,1.1,2.54,1.96s0.87,1.85,0.87,2.97c0,1.85-0.59,3.35-1.77,4.51
		s-2.75,1.74-4.71,1.74c-1.82,0-3.34-0.48-4.55-1.44c-1.43-1.13-2.15-2.68-2.15-4.65c0-1.08,0.27-2.08,0.81-2.99
		c0.54-0.91,1.39-1.61,2.54-2.1C33.49,38.26,32.77,37.69,32.32,36.95z M24.05,33.25c-0.46-0.46-1.1-0.69-1.91-0.69
		c-0.8,0-1.44,0.24-1.91,0.72c-0.47,0.48-0.75,1.29-0.82,2.41l-3.83-0.38c0.23-2.11,0.94-3.63,2.15-4.55
		c1.2-0.92,2.71-1.38,4.51-1.38c1.98,0,3.53,0.53,4.66,1.6c1.13,1.07,1.7,2.39,1.7,3.98c0,0.9-0.16,1.76-0.49,2.58
		c-0.32,0.82-0.84,1.67-1.54,2.56c-0.46,0.59-1.3,1.44-2.52,2.56c-1.21,1.11-1.98,1.85-2.3,2.21c-0.32,0.36-0.59,0.72-0.79,1.07
		h7.63v3.57H15.12c0.15-1.35,0.58-2.63,1.31-3.83c0.73-1.21,2.17-2.81,4.32-4.81c1.73-1.61,2.79-2.71,3.19-3.28
		c0.53-0.79,0.79-1.58,0.79-2.35C24.74,34.37,24.51,33.71,24.05,33.25z"/>
</g>
</svg>
