<?xml version="1.0" encoding="utf-8"?>
<svg version="1.1" id="Layer_1" xmlns="http://www.w3.org/2000/svg" xmlns:xlink="http://www.w3.org/1999/xlink" x="0px" y="0px"
	 viewBox="0 0 60 60" style="enable-background:new 0 0 60 60;" xml:space="preserve">
<title>Designed by Shapes4FREE.com</title>
<g>
	<path d="M58,4h-8V1c0-0.55-0.45-1-1-1l-2,0c-0.55,0-1,0.45-1,1v3h-8V1c0-0.55-0.45-1-1-1l-2,0c-0.55,0-1,0.45-1,1v3h-8V1
		c0-0.55-0.45-1-1-1l-2,0c-0.55,0-1,0.45-1,1v3h-8V1c0-0.55-0.45-1-1-1l-2,0c-0.55,0-1,0.45-1,1v3H2C0.9,4,0,4.9,0,6v10h60V6
		C60,4.9,59.1,4,58,4z"/>
	<path d="M0,58c0,1.1,0.9,2,2,2h56c1.1,0,2-0.9,2-2V18H0V58z M39.95,40.07c-0.55-0.62-1.27-0.92-2.15-0.92
		c-1.1,0-2.09,0.49-2.97,1.46l-3.12-0.45l1.97-10.43h10.16v3.6h-7.25l-0.6,3.4c0.86-0.43,1.73-0.64,2.62-0.64
		c1.7,0,3.15,0.62,4.33,1.86s1.78,2.85,1.78,4.83c0,1.65-0.48,3.12-1.44,4.42c-1.3,1.77-3.11,2.65-5.43,2.65
		c-1.85,0-3.36-0.5-4.53-1.49s-1.86-2.33-2.09-4.01l3.83-0.4c0.11,0.87,0.43,1.55,0.97,2.06s1.16,0.76,1.86,0.76
		c0.8,0,1.48-0.33,2.04-0.98s0.83-1.63,0.83-2.95C40.77,41.61,40.5,40.68,39.95,40.07z M24.05,33.25c-0.46-0.46-1.1-0.69-1.91-0.69
		c-0.8,0-1.44,0.24-1.91,0.72c-0.47,0.48-0.75,1.29-0.82,2.41l-3.83-0.38c0.23-2.11,0.94-3.63,2.15-4.55
		c1.2-0.92,2.71-1.38,4.51-1.38c1.98,0,3.53,0.53,4.66,1.6c1.13,1.07,1.7,2.39,1.7,3.98c0,0.9-0.16,1.76-0.49,2.58
		c-0.32,0.82-0.84,1.67-1.54,2.56c-0.46,0.59-1.3,1.44-2.52,2.56c-1.21,1.11-1.98,1.85-2.3,2.21c-0.32,0.36-0.59,0.72-0.79,1.07
		h7.63v3.57H15.12c0.15-1.35,0.58-2.63,1.31-3.83c0.73-1.21,2.17-2.81,4.32-4.81c1.73-1.61,2.79-2.71,3.19-3.28
		c0.53-0.79,0.79-1.58,0.79-2.35C24.74,34.37,24.51,33.71,24.05,33.25z"/>
</g>
</svg>
