<?xml version="1.0" encoding="utf-8"?>
<svg version="1.1" id="Layer_1" xmlns="http://www.w3.org/2000/svg" xmlns:xlink="http://www.w3.org/1999/xlink" x="0px" y="0px"
	 viewBox="0 0 60 60" style="enable-background:new 0 0 60 60;" xml:space="preserve">
<title>Designed by Shapes4FREE.com</title>
<g>
	<path d="M58,4h-8V1c0-0.55-0.45-1-1-1l-2,0c-0.55,0-1,0.45-1,1v3h-8V1c0-0.55-0.45-1-1-1l-2,0c-0.55,0-1,0.45-1,1v3h-8V1
		c0-0.55-0.45-1-1-1l-2,0c-0.55,0-1,0.45-1,1v3h-8V1c0-0.55-0.45-1-1-1l-2,0c-0.55,0-1,0.45-1,1v3H2C0.9,4,0,4.9,0,6v10h60V6
		C60,4.9,59.1,4,58,4z"/>
	<path d="M29.56,39.91c0.74,0,1.36-0.29,1.87-0.87c0.51-0.58,0.76-1.44,0.76-2.57c0-1.24-0.29-2.2-0.85-2.88
		c-0.57-0.68-1.23-1.03-1.98-1.03c-0.71,0-1.3,0.28-1.77,0.84c-0.47,0.56-0.7,1.48-0.7,2.75c0,1.29,0.25,2.25,0.77,2.85
		C28.15,39.61,28.79,39.91,29.56,39.91z"/>
	<path d="M0,58c0,1.1,0.9,2,2,2h56c1.1,0,2-0.9,2-2V18H0V58z M24.91,31.24c1.21-1.24,2.75-1.87,4.61-1.87c2.03,0,3.7,0.79,5,2.36
		c1.3,1.57,1.96,4.16,1.96,7.76c0,3.66-0.68,6.31-2.04,7.93c-1.36,1.62-3.13,2.43-5.3,2.43c-1.57,0-2.83-0.42-3.8-1.25
		c-0.97-0.83-1.59-2.08-1.86-3.74l3.72-0.41c0.09,0.76,0.33,1.32,0.71,1.68s0.89,0.55,1.52,0.55c0.79,0,1.47-0.36,2.02-1.09
		c0.56-0.73,0.91-2.24,1.07-4.54c-0.97,1.12-2.17,1.68-3.62,1.68c-1.58,0-2.94-0.61-4.08-1.83c-1.14-1.22-1.72-2.8-1.72-4.75
		C23.1,34.12,23.71,32.48,24.91,31.24z"/>
</g>
</svg>
