<?xml version="1.0" encoding="utf-8"?>
<svg version="1.1" id="Layer_1" xmlns="http://www.w3.org/2000/svg" xmlns:xlink="http://www.w3.org/1999/xlink" x="0px" y="0px"
	 viewBox="0 0 60 60" style="enable-background:new 0 0 60 60;" xml:space="preserve">
<title>Designed by Shapes4FREE.com</title>
<g>
	<path d="M58,4h-8V1c0-0.55-0.45-1-1-1l-2,0c-0.55,0-1,0.45-1,1v3h-8V1c0-0.55-0.45-1-1-1l-2,0c-0.55,0-1,0.45-1,1v3h-8V1
		c0-0.55-0.45-1-1-1l-2,0c-0.55,0-1,0.45-1,1v3h-8V1c0-0.55-0.45-1-1-1l-2,0c-0.55,0-1,0.45-1,1v3H2C0.9,4,0,4.9,0,6v10h60V6
		C60,4.9,59.1,4,58,4z"/>
	<path d="M0,58c0,1.1,0.9,2,2,2h56c1.1,0,2-0.9,2-2V18H0V58z M39.62,33.25c-0.46-0.46-1.1-0.69-1.91-0.69
		c-0.8,0-1.44,0.24-1.91,0.72s-0.75,1.29-0.82,2.41l-3.83-0.38c0.23-2.11,0.94-3.63,2.15-4.55c1.2-0.92,2.71-1.38,4.51-1.38
		c1.98,0,3.53,0.53,4.66,1.6s1.7,2.39,1.7,3.98c0,0.9-0.16,1.76-0.49,2.58c-0.32,0.82-0.84,1.67-1.54,2.56
		c-0.46,0.59-1.3,1.44-2.52,2.56c-1.21,1.11-1.98,1.85-2.3,2.21s-0.59,0.72-0.79,1.07h7.63v3.57H30.7c0.15-1.35,0.58-2.63,1.31-3.83
		s2.17-2.81,4.32-4.81c1.73-1.61,2.79-2.71,3.19-3.28c0.53-0.79,0.79-1.58,0.79-2.35C40.31,34.37,40.08,33.71,39.62,33.25z
		 M16.64,34.44c1-0.33,2.09-0.95,3.27-1.87c1.18-0.92,1.98-1.98,2.42-3.21h3.12V49.5h-3.84V35.02c-1.4,1.31-3.06,2.28-4.96,2.91
		V34.44z"/>
</g>
</svg>
