<?xml version="1.0" encoding="utf-8"?>
<svg version="1.1" id="Layer_1" xmlns="http://www.w3.org/2000/svg" xmlns:xlink="http://www.w3.org/1999/xlink" x="0px" y="0px"
	 viewBox="0 0 60 60" style="enable-background:new 0 0 60 60;" xml:space="preserve">
<title>Designed by Shapes4FREE.com</title>
<g>
	<path d="M58,4h-8V1c0-0.55-0.45-1-1-1l-2,0c-0.55,0-1,0.45-1,1v3h-8V1c0-0.55-0.45-1-1-1l-2,0c-0.55,0-1,0.45-1,1v3h-8V1
		c0-0.55-0.45-1-1-1l-2,0c-0.55,0-1,0.45-1,1v3h-8V1c0-0.55-0.45-1-1-1l-2,0c-0.55,0-1,0.45-1,1v3H2C0.9,4,0,4.9,0,6v10h60V6
		C60,4.9,59.1,4,58,4z"/>
	<path d="M29.87,37.25c0.73,0,1.31-0.22,1.75-0.65c0.44-0.43,0.66-1.03,0.66-1.8c0-0.72-0.22-1.3-0.65-1.73
		c-0.43-0.43-1-0.65-1.72-0.65c-0.74,0-1.33,0.22-1.76,0.66s-0.66,1.02-0.66,1.74c0,0.77,0.22,1.36,0.65,1.79
		C28.57,37.03,29.15,37.25,29.87,37.25z"/>
	<path d="M29.98,46.76c0.79,0,1.45-0.29,1.97-0.85s0.78-1.39,0.78-2.47c0-0.94-0.26-1.69-0.79-2.26c-0.53-0.57-1.2-0.85-2.01-0.85
		c-0.94,0-1.64,0.32-2.1,0.97c-0.46,0.65-0.69,1.35-0.69,2.11c0,1.06,0.27,1.88,0.81,2.47C28.49,46.46,29.17,46.76,29.98,46.76z"/>
	<path d="M0,58c0,1.1,0.9,2,2,2h56c1.1,0,2-0.9,2-2V18H0V58z M24.53,36.95c-0.45-0.73-0.68-1.54-0.68-2.41
		c0-1.5,0.52-2.73,1.57-3.71c1.04-0.98,2.53-1.46,4.45-1.46c1.9,0,3.38,0.49,4.44,1.46c1.05,0.98,1.58,2.21,1.58,3.71
		c0,0.93-0.24,1.76-0.72,2.48c-0.48,0.72-1.16,1.28-2.04,1.66c1.11,0.45,1.96,1.1,2.54,1.96c0.58,0.86,0.87,1.85,0.87,2.97
		c0,1.85-0.59,3.35-1.77,4.51c-1.18,1.16-2.75,1.74-4.71,1.74c-1.82,0-3.34-0.48-4.55-1.44c-1.43-1.13-2.15-2.68-2.15-4.65
		c0-1.08,0.27-2.08,0.81-2.99c0.54-0.91,1.38-1.61,2.54-2.1C25.7,38.26,24.98,37.69,24.53,36.95z"/>
</g>
</svg>
