<?xml version="1.0" encoding="utf-8"?>
<svg version="1.1" id="Layer_1" xmlns="http://www.w3.org/2000/svg" xmlns:xlink="http://www.w3.org/1999/xlink" x="0px" y="0px"
	 viewBox="0 0 60 60" style="enable-background:new 0 0 60 60;" xml:space="preserve">
<title>Designed by Shapes4FREE.com</title>
<g>
	<path d="M58,4h-8V1c0-0.55-0.45-1-1-1l-2,0c-0.55,0-1,0.45-1,1v3h-8V1c0-0.55-0.45-1-1-1l-2,0c-0.55,0-1,0.45-1,1v3h-8V1
		c0-0.55-0.45-1-1-1l-2,0c-0.55,0-1,0.45-1,1v3h-8V1c0-0.55-0.45-1-1-1l-2,0c-0.55,0-1,0.45-1,1v3H2C0.9,4,0,4.9,0,6v10h60V6
		C60,4.9,59.1,4,58,4z"/>
	<path d="M0,58c0,1.1,0.9,2,2,2h56c1.1,0,2-0.9,2-2V18H0V58z M31.19,29.73h13.14v2.79c-1.08,1.07-2.19,2.6-3.31,4.59
		c-1.12,2-1.98,4.12-2.56,6.36c-0.59,2.25-0.88,4.25-0.87,6.02h-3.71c0.06-2.77,0.64-5.6,1.72-8.48s2.52-5.46,4.33-7.72h-8.74V29.73
		z M24.05,33.25c-0.46-0.46-1.1-0.69-1.91-0.69c-0.8,0-1.44,0.24-1.91,0.72c-0.47,0.48-0.75,1.29-0.82,2.41l-3.83-0.38
		c0.23-2.11,0.94-3.63,2.15-4.55c1.2-0.92,2.71-1.38,4.51-1.38c1.98,0,3.53,0.53,4.66,1.6c1.13,1.07,1.7,2.39,1.7,3.98
		c0,0.9-0.16,1.76-0.49,2.58c-0.32,0.82-0.84,1.67-1.54,2.56c-0.46,0.59-1.3,1.44-2.52,2.56c-1.21,1.11-1.98,1.85-2.3,2.21
		c-0.32,0.36-0.59,0.72-0.79,1.07h7.63v3.57H15.12c0.15-1.35,0.58-2.63,1.31-3.83c0.73-1.21,2.17-2.81,4.32-4.81
		c1.73-1.61,2.79-2.71,3.19-3.28c0.53-0.79,0.79-1.58,0.79-2.35C24.74,34.37,24.51,33.71,24.05,33.25z"/>
</g>
</svg>
