<?xml version="1.0" encoding="utf-8"?>
<svg version="1.1" id="Layer_1" xmlns="http://www.w3.org/2000/svg" xmlns:xlink="http://www.w3.org/1999/xlink" x="0px" y="0px"
	 viewBox="0 0 60 60" style="enable-background:new 0 0 60 60;" xml:space="preserve">
<title>Designed by Shapes4FREE.com</title>
<g>
	<path d="M58,4h-8V1c0-0.55-0.45-1-1-1l-2,0c-0.55,0-1,0.45-1,1v3h-8V1c0-0.55-0.45-1-1-1l-2,0c-0.55,0-1,0.45-1,1v3h-8V1
		c0-0.55-0.45-1-1-1l-2,0c-0.55,0-1,0.45-1,1v3h-8V1c0-0.55-0.45-1-1-1l-2,0c-0.55,0-1,0.45-1,1v3H2C0.9,4,0,4.9,0,6v10h60V6
		C60,4.9,59.1,4,58,4z"/>
	<path d="M0,58c0,1.1,0.9,2,2,2h56c1.1,0,2-0.9,2-2V18H0V58z M39.65,41.02c-0.52-0.57-1.15-0.85-1.9-0.85
		c-0.49,0-1.08,0.1-1.76,0.29l0.42-3.13c1.04,0.03,1.83-0.2,2.38-0.68s0.82-1.11,0.82-1.91c0-0.67-0.2-1.21-0.6-1.61
		s-0.93-0.6-1.6-0.6c-0.66,0-1.22,0.23-1.68,0.68s-0.75,1.12-0.85,2l-3.54-0.6c0.25-1.21,0.62-2.18,1.11-2.91
		c0.5-0.72,1.19-1.29,2.08-1.71c0.89-0.41,1.88-0.62,2.99-0.62c1.89,0,3.4,0.6,4.54,1.8c0.94,0.98,1.41,2.1,1.41,3.34
		c0,1.76-0.96,3.16-2.88,4.21c1.15,0.25,2.07,0.8,2.75,1.65s1.03,1.89,1.03,3.1c0,1.76-0.64,3.26-1.93,4.5
		c-1.29,1.24-2.88,1.86-4.8,1.86c-1.81,0-3.32-0.52-4.51-1.57s-1.89-2.41-2.08-4.09l3.72-0.45c0.12,0.95,0.44,1.67,0.96,2.17
		s1.15,0.75,1.89,0.75c0.79,0,1.46-0.3,2-0.9s0.81-1.41,0.81-2.43C40.43,42.35,40.17,41.58,39.65,41.02z M24.05,33.25
		c-0.46-0.46-1.1-0.69-1.91-0.69c-0.8,0-1.44,0.24-1.91,0.72c-0.47,0.48-0.75,1.29-0.82,2.41l-3.83-0.38
		c0.23-2.11,0.94-3.63,2.15-4.55c1.2-0.92,2.71-1.38,4.51-1.38c1.98,0,3.53,0.53,4.66,1.6c1.13,1.07,1.7,2.39,1.7,3.98
		c0,0.9-0.16,1.76-0.49,2.58c-0.32,0.82-0.84,1.67-1.54,2.56c-0.46,0.59-1.3,1.44-2.52,2.56c-1.21,1.11-1.98,1.85-2.3,2.21
		c-0.32,0.36-0.59,0.72-0.79,1.07h7.63v3.57H15.12c0.15-1.35,0.58-2.63,1.31-3.83c0.73-1.21,2.17-2.81,4.32-4.81
		c1.73-1.61,2.79-2.71,3.19-3.28c0.53-0.79,0.79-1.58,0.79-2.35C24.74,34.37,24.51,33.71,24.05,33.25z"/>
</g>
</svg>
