<?xml version="1.0" encoding="utf-8"?>
<svg version="1.1" id="Layer_1" xmlns="http://www.w3.org/2000/svg" xmlns:xlink="http://www.w3.org/1999/xlink" x="0px" y="0px"
	 viewBox="0 0 60 60" style="enable-background:new 0 0 60 60;" xml:space="preserve">
<title>Designed by Shapes4FREE.com</title>
<g>
	<path d="M58,4h-8V1c0-0.55-0.45-1-1-1l-2,0c-0.55,0-1,0.45-1,1v3h-8V1c0-0.55-0.45-1-1-1l-2,0c-0.55,0-1,0.45-1,1v3h-8V1
		c0-0.55-0.45-1-1-1l-2,0c-0.55,0-1,0.45-1,1v3h-8V1c0-0.55-0.45-1-1-1l-2,0c-0.55,0-1,0.45-1,1v3H2C0.9,4,0,4.9,0,6v10h60V6
		C60,4.9,59.1,4,58,4z"/>
	<path d="M0,58c0,1.1,0.9,2,2,2h56c1.1,0,2-0.9,2-2V18H0V58z M31.44,34.44c1-0.33,2.09-0.95,3.27-1.87
		c1.18-0.92,1.98-1.98,2.42-3.21h3.12V49.5h-3.84V35.02c-1.4,1.31-3.06,2.28-4.96,2.91V34.44z M17.42,34.44
		c1-0.33,2.09-0.95,3.27-1.87c1.18-0.92,1.98-1.98,2.42-3.21h3.12V49.5h-3.84V35.02c-1.4,1.31-3.06,2.28-4.96,2.91V34.44z"/>
</g>
</svg>
