<?xml version="1.0" encoding="utf-8"?>
<svg version="1.1" id="Layer_1" xmlns="http://www.w3.org/2000/svg" xmlns:xlink="http://www.w3.org/1999/xlink" x="0px" y="0px"
	 viewBox="0 0 60 60" style="enable-background:new 0 0 60 60;" xml:space="preserve">
<title>Designed by Shapes4FREE.com</title>
<g>
	<path d="M58,4h-8V1c0-0.55-0.45-1-1-1l-2,0c-0.55,0-1,0.45-1,1v3h-8V1c0-0.55-0.45-1-1-1l-2,0c-0.55,0-1,0.45-1,1v3h-8V1
		c0-0.55-0.45-1-1-1l-2,0c-0.55,0-1,0.45-1,1v3h-8V1c0-0.55-0.45-1-1-1l-2,0c-0.55,0-1,0.45-1,1v3H2C0.9,4,0,4.9,0,6v10h60V6
		C60,4.9,59.1,4,58,4z"/>
	<path d="M30.54,46.65c0.71,0,1.3-0.28,1.78-0.83c0.47-0.56,0.71-1.47,0.71-2.73c0-1.3-0.26-2.26-0.77-2.86
		c-0.51-0.61-1.15-0.91-1.91-0.91c-0.74,0-1.36,0.29-1.87,0.87c-0.51,0.58-0.77,1.43-0.77,2.56c0,1.25,0.29,2.21,0.86,2.89
		S29.8,46.65,30.54,46.65z"/>
	<path d="M0,58c0,1.1,0.9,2,2,2h56c1.1,0,2-0.9,2-2V18H0V58z M25.44,31.8c1.36-1.62,3.12-2.43,5.29-2.43c1.52,0,2.78,0.43,3.78,1.28
		c1,0.85,1.63,2.09,1.91,3.71l-3.72,0.41c-0.09-0.77-0.33-1.33-0.71-1.7s-0.88-0.55-1.49-0.55c-0.81,0-1.5,0.36-2.06,1.09
		s-0.91,2.25-1.06,4.55c0.96-1.13,2.15-1.7,3.57-1.7c1.6,0,2.98,0.61,4.12,1.83c1.14,1.22,1.72,2.8,1.72,4.73
		c0,2.05-0.6,3.7-1.8,4.94c-1.2,1.24-2.75,1.86-4.63,1.86c-2.02,0-3.69-0.79-4.99-2.36c-1.3-1.57-1.96-4.15-1.96-7.73
		C23.4,36.07,24.08,33.43,25.44,31.8z"/>
</g>
</svg>
