<?xml version="1.0" encoding="utf-8"?>
<svg version="1.1" id="Layer_1" xmlns="http://www.w3.org/2000/svg" xmlns:xlink="http://www.w3.org/1999/xlink" x="0px" y="0px"
	 viewBox="0 0 60 60" style="enable-background:new 0 0 60 60;" xml:space="preserve">
<title>Designed by Shapes4FREE.com</title>
<g>
	<path d="M58,4h-8V1c0-0.55-0.45-1-1-1l-2,0c-0.55,0-1,0.45-1,1v3h-8V1c0-0.55-0.45-1-1-1l-2,0c-0.55,0-1,0.45-1,1v3h-8V1
		c0-0.55-0.45-1-1-1l-2,0c-0.55,0-1,0.45-1,1v3h-8V1c0-0.55-0.45-1-1-1l-2,0c-0.55,0-1,0.45-1,1v3H2C0.9,4,0,4.9,0,6v10h60V6
		C60,4.9,59.1,4,58,4z"/>
	<path d="M36.45,46.21c0.36,0.29,0.77,0.44,1.24,0.44s0.88-0.15,1.24-0.44s0.65-0.83,0.85-1.59c0.26-0.98,0.4-2.65,0.4-5
		c0-2.35-0.12-3.97-0.36-4.85c-0.24-0.88-0.54-1.47-0.9-1.76c-0.36-0.3-0.77-0.44-1.24-0.44S36.8,32.7,36.44,33
		c-0.36,0.3-0.65,0.83-0.85,1.59c-0.26,0.99-0.4,2.67-0.4,5.02c0,2.35,0.12,3.97,0.36,4.85S36.09,45.92,36.45,46.21z"/>
	<path d="M0,58c0,1.1,0.9,2,2,2h56c1.1,0,2-0.9,2-2V18H0V58z M33.14,31.42c1.08-1.37,2.6-2.05,4.54-2.05s3.46,0.69,4.55,2.08
		c1.3,1.64,1.96,4.36,1.96,8.16c0,3.79-0.66,6.52-1.97,8.18c-1.08,1.37-2.6,2.05-4.54,2.05c-1.95,0-3.52-0.75-4.72-2.25
		c-1.19-1.5-1.79-4.17-1.79-8.02C31.18,35.8,31.83,33.08,33.14,31.42z M24.05,33.25c-0.46-0.46-1.1-0.69-1.91-0.69
		c-0.8,0-1.44,0.24-1.91,0.72c-0.47,0.48-0.75,1.29-0.82,2.41l-3.83-0.38c0.23-2.11,0.94-3.63,2.15-4.55
		c1.2-0.92,2.71-1.38,4.51-1.38c1.98,0,3.53,0.53,4.66,1.6c1.13,1.07,1.7,2.39,1.7,3.98c0,0.9-0.16,1.76-0.49,2.58
		c-0.32,0.82-0.84,1.67-1.54,2.56c-0.46,0.59-1.3,1.44-2.52,2.56c-1.21,1.11-1.98,1.85-2.3,2.21c-0.32,0.36-0.59,0.72-0.79,1.07
		h7.63v3.57H15.12c0.15-1.35,0.58-2.63,1.31-3.83c0.73-1.21,2.17-2.81,4.32-4.81c1.73-1.61,2.79-2.71,3.19-3.28
		c0.53-0.79,0.79-1.58,0.79-2.35C24.74,34.37,24.51,33.71,24.05,33.25z"/>
</g>
</svg>
