<?xml version="1.0" encoding="utf-8"?>
<svg version="1.1" id="Layer_1" xmlns="http://www.w3.org/2000/svg" xmlns:xlink="http://www.w3.org/1999/xlink" x="0px" y="0px"
	 viewBox="0 0 60 60" style="enable-background:new 0 0 60 60;" xml:space="preserve">
<title>Designed by Shapes4FREE.com</title>
<g>
	<path d="M58,4h-8V1c0-0.55-0.45-1-1-1l-2,0c-0.55,0-1,0.45-1,1v3h-8V1c0-0.55-0.45-1-1-1l-2,0c-0.55,0-1,0.45-1,1v3h-8V1
		c0-0.55-0.45-1-1-1l-2,0c-0.55,0-1,0.45-1,1v3h-8V1c0-0.55-0.45-1-1-1l-2,0c-0.55,0-1,0.45-1,1v3H2C0.9,4,0,4.9,0,6v10h60V6
		C60,4.9,59.1,4,58,4z"/>
	<path d="M36.45,46.21c0.36,0.29,0.77,0.44,1.24,0.44s0.88-0.15,1.24-0.44s0.65-0.83,0.85-1.59c0.26-0.98,0.4-2.65,0.4-5
		c0-2.35-0.12-3.97-0.36-4.85c-0.24-0.88-0.54-1.47-0.9-1.76c-0.36-0.3-0.77-0.44-1.24-0.44S36.8,32.7,36.44,33
		c-0.36,0.3-0.65,0.83-0.85,1.59c-0.26,0.99-0.4,2.67-0.4,5.02c0,2.35,0.12,3.97,0.36,4.85S36.09,45.92,36.45,46.21z"/>
	<path d="M0,58c0,1.1,0.9,2,2,2h56c1.1,0,2-0.9,2-2V18H0V58z M33.14,31.42c1.08-1.37,2.6-2.05,4.54-2.05s3.46,0.69,4.55,2.08
		c1.3,1.64,1.96,4.36,1.96,8.16c0,3.79-0.66,6.52-1.97,8.18c-1.08,1.37-2.6,2.05-4.54,2.05c-1.95,0-3.52-0.75-4.72-2.25
		c-1.19-1.5-1.79-4.17-1.79-8.02C31.18,35.8,31.83,33.08,33.14,31.42z M16.64,34.44c1-0.33,2.09-0.95,3.27-1.87
		c1.18-0.92,1.98-1.98,2.42-3.21h3.12V49.5h-3.84V35.02c-1.4,1.31-3.06,2.28-4.96,2.91V34.44z"/>
</g>
</svg>
