<?xml version="1.0" encoding="utf-8"?>
<svg version="1.1" id="Layer_1" xmlns="http://www.w3.org/2000/svg" xmlns:xlink="http://www.w3.org/1999/xlink" x="0px" y="0px"
	 viewBox="0 0 60 60" style="enable-background:new 0 0 60 60;" xml:space="preserve">
<title>Designed by Shapes4FREE.com</title>
<g>
	<path d="M58,4h-8V1c0-0.55-0.45-1-1-1l-2,0c-0.55,0-1,0.45-1,1v3h-8V1c0-0.55-0.45-1-1-1l-2,0c-0.55,0-1,0.45-1,1v3h-8V1
		c0-0.55-0.45-1-1-1l-2,0c-0.55,0-1,0.45-1,1v3h-8V1c0-0.55-0.45-1-1-1l-2,0c-0.55,0-1,0.45-1,1v3H2C0.9,4,0,4.9,0,6v10h60V6
		C60,4.9,59.1,4,58,4z"/>
	<path d="M36.45,46.21c0.36,0.29,0.77,0.44,1.24,0.44s0.88-0.15,1.24-0.44s0.65-0.83,0.85-1.59c0.26-0.98,0.4-2.65,0.4-5
		c0-2.35-0.12-3.97-0.36-4.85c-0.24-0.88-0.54-1.47-0.9-1.76c-0.36-0.3-0.77-0.44-1.24-0.44S36.8,32.7,36.44,33
		c-0.36,0.3-0.65,0.83-0.85,1.59c-0.26,0.99-0.4,2.67-0.4,5.02c0,2.35,0.12,3.97,0.36,4.85S36.09,45.92,36.45,46.21z"/>
	<path d="M0,58c0,1.1,0.9,2,2,2h56c1.1,0,2-0.9,2-2V18H0V58z M33.14,31.42c1.08-1.37,2.6-2.05,4.54-2.05s3.46,0.69,4.55,2.08
		c1.3,1.64,1.96,4.36,1.96,8.16c0,3.79-0.66,6.52-1.97,8.18c-1.08,1.37-2.6,2.05-4.54,2.05c-1.95,0-3.52-0.75-4.72-2.25
		c-1.19-1.5-1.79-4.17-1.79-8.02C31.18,35.8,31.83,33.08,33.14,31.42z M24.08,41.02c-0.52-0.57-1.15-0.85-1.9-0.85
		c-0.49,0-1.08,0.1-1.76,0.29l0.42-3.13c1.04,0.03,1.83-0.2,2.38-0.68s0.82-1.11,0.82-1.91c0-0.67-0.2-1.21-0.6-1.61
		c-0.4-0.4-0.93-0.6-1.6-0.6c-0.66,0-1.22,0.23-1.68,0.68s-0.75,1.12-0.85,2l-3.54-0.6c0.25-1.21,0.62-2.18,1.11-2.91
		c0.5-0.72,1.19-1.29,2.08-1.71c0.89-0.41,1.88-0.62,2.99-0.62c1.89,0,3.4,0.6,4.54,1.8c0.94,0.98,1.41,2.1,1.41,3.34
		c0,1.76-0.96,3.16-2.88,4.21c1.15,0.25,2.07,0.8,2.75,1.65c0.69,0.86,1.03,1.89,1.03,3.1c0,1.76-0.64,3.26-1.93,4.5
		c-1.29,1.24-2.88,1.86-4.8,1.86c-1.81,0-3.32-0.52-4.51-1.57c-1.19-1.04-1.89-2.41-2.08-4.09l3.72-0.45
		c0.12,0.95,0.44,1.67,0.96,2.17s1.15,0.75,1.89,0.75c0.79,0,1.46-0.3,2-0.9c0.54-0.6,0.81-1.41,0.81-2.43
		C24.86,42.35,24.6,41.58,24.08,41.02z"/>
</g>
</svg>
